# xmcd CD database file
#
# Track frame offsets:
#	150
#	33500
#	38445
#	54805
#	56725
#	69800
#	71760
#	81637
#	90562
#	99985
#	133945
#	135252
#	148140
#	152595
#	181072
#	186225
#	204300
#	205072
#	222420
#	244242
#	248555
#
# Disc length: 3593 seconds
#
# Revision: 0
# Processed by: cddbd v1.5.1PL2 Copyright (c) Steve Scherf et al.
# Submitted via: CDex 1.51
#
DISCID=260e0715
DTITLE=Various Artist - Extrordinaire The Americana Series Mountain Aire
DYEAR=1900
DGENRE=New Age
TTITLE0=Mountain Thyme
TTITLE1=Natural Interlude #1
TTITLE2=Rocky Mountain Home
TTITLE3=Natural Interlude #2
TTITLE4=The Choice Is Yours
TTITLE5=Natural Interlude #3
TTITLE6=Mountain Thyme (Reprise)
TTITLE7=Natural Interlude #4
TTITLE8=Gate of the Shimmering Cave, Natural Interlude #5
TTITLE9=Dreamy Streamy
TTITLE10=Natural Interlude #6
TTITLE11=Jewelled Light
TTITLE12=Natural Interlude #7
TTITLE13=Island Time
TTITLE14=Natural Interlude #8
TTITLE15=Willow
TTITLE16=Natural Interlude #9
TTITLE17=Spring Rain, Natural Interlude #10
TTITLE18=Night Voyage
TTITLE19=Natural Interlude #11
TTITLE20=Across the View
EXTD=
EXTT0=
EXTT1=
EXTT2=
EXTT3=
EXTT4=
EXTT5=
EXTT6=
EXTT7=
EXTT8=
EXTT9=
EXTT10=
EXTT11=
EXTT12=
EXTT13=
EXTT14=
EXTT15=
EXTT16=
EXTT17=
EXTT18=
EXTT19=
EXTT20=
PLAYORDER=
